<mxfile host="app.diagrams.net" modified="2023-12-09T01:53:53.470Z" agent="Mozilla/5.0 (Macintosh; Intel Mac OS X 10_15_7) AppleWebKit/537.36 (KHTML, like Gecko) Chrome/119.0.0.0 Safari/537.36" version="22.1.7" etag="ivAIzy9ah5-K-MaGSyrs" type="github">
  <diagram name="ページ1" id="vJ15fzR9yFP7jA5h14AV">
    <mxGraphModel>
      <root>
        <mxCell id="0" />
        <mxCell id="1" parent="0" />
      </root>
    </mxGraphModel>
  </diagram>
</mxfile>
